<svg width="36" height="36" viewBox="0 0 36 36" fill="none" xmlns="http://www.w3.org/2000/svg">
<path d="M21.1957 23.5477C19.8879 23.6391 20.0145 22.9395 20.7915 21.9234C22.5633 19.5609 25.8434 16.3512 25.9911 14.0063C26.195 10.9617 23.1329 10.0195 19.9793 10.0195C17.7856 10.0758 15.5145 10.684 13.9676 11.2359C8.63794 13.1168 5.29809 16.0699 3.17817 19.3922C0.984421 22.6758 1.66645 25.8328 6.40551 25.9242C9.98442 25.7766 12.3997 24.7816 14.8325 23.5266C14.85 23.5266 8.06489 25.4637 5.55473 24.0434C5.277 23.8957 5.00278 23.6918 4.92895 23.1223C4.92895 21.9586 6.84848 20.7422 7.97348 20.3555V18.3621C10.2411 19.1566 12.9165 18.9352 15.2051 17.2371C15.279 17.441 15.3528 17.6977 15.3352 17.9754H15.7219C15.8133 17.1809 15.279 16.4074 14.393 16.3512C14.6497 16.5551 14.836 16.7203 14.9274 16.868L14.8922 16.9031L14.8747 16.9207C11.925 18.9879 9.06333 18.0281 8.78911 17.9719L10.4309 16.3652L9.97036 15.2016C13.2364 14.059 15.9293 13.2258 20.4082 12.4348L19.4063 11.6262L19.9231 11.3133C22.5774 12.0516 24.3668 12.6035 24.2754 14.0063C24.2403 14.2453 24.1454 14.523 23.9977 14.8184C23.2067 16.3863 20.8829 18.9141 19.9407 20.0039C19.3325 20.7246 18.7243 21.3891 18.2989 22.0535C17.8207 22.7356 17.5782 23.3648 17.5606 23.9344C17.652 28.568 31.3207 21.7582 34.0137 19.9652C30.0868 21.6457 25.8258 23.2523 21.1957 23.5477ZM24.184 12.8988C24.2825 13.0816 24.3282 13.3066 24.3282 13.5703C24.3247 13.3313 24.279 13.1027 24.184 12.8988Z" fill="black"/>
</svg>
