<svg width="36" height="36" viewBox="0 0 36 36" fill="none" xmlns="http://www.w3.org/2000/svg">
<path d="M32.5426 31.1197C28.5984 34.0312 22.8879 35.577 17.9671 35.577C11.0686 35.577 4.86088 33.0322 0.165127 28.7842C-0.201623 28.4535 0.122377 27.9967 0.565627 28.2577C5.63488 31.212 11.9079 32.9827 18.3834 32.9827C22.7506 32.9827 27.5521 32.076 31.9756 30.1972C32.6371 29.916 33.1996 30.6405 32.5449 31.1175L32.5426 31.1197Z" fill="black"/>
<path d="M34.1796 29.25C33.6734 28.6043 30.8474 28.9418 29.5739 29.0948C29.1869 29.1375 29.1306 28.8068 29.4749 28.5593C31.7316 26.9775 35.4306 27.4343 35.8604 27.9608C36.2969 28.4963 35.7479 32.1998 33.6306 33.9728C33.3066 34.2473 32.9984 34.0988 33.1379 33.741C33.6239 32.553 34.6859 29.8958 34.1796 29.2478V29.25Z" fill="black"/>
<path d="M24.869 26.6354L24.8758 26.6422C25.7465 25.8749 27.3148 24.5047 28.2013 23.7667C28.5523 23.4854 28.4893 23.0152 28.2148 22.6214C27.4205 21.5234 26.5768 20.6324 26.5768 18.6074V11.8574C26.5768 8.99545 26.7748 6.37195 24.671 4.4032C23.0105 2.8147 20.2543 2.2522 18.146 2.2522C14.0263 2.2522 9.4273 3.7912 8.4643 8.88295C8.35855 9.4252 8.75905 9.7132 9.11005 9.7897L13.3085 10.2464C13.7023 10.2262 13.9835 9.8392 14.06 9.44545C14.4178 7.69495 15.8893 6.84445 17.5408 6.84445C18.434 6.84445 19.4465 7.16845 19.973 7.96945C20.5783 8.8627 20.4995 10.0799 20.4995 11.1127V11.6752C17.9885 11.9564 14.7058 12.1387 12.3568 13.1737C9.6433 14.3482 7.73755 16.7377 7.73755 20.2544C7.73755 24.7544 10.5703 27.0044 14.2198 27.0044C17.3 27.0044 18.9808 26.2799 21.3568 23.8477C22.1443 24.9862 22.3985 25.5419 23.8385 26.7367C23.9986 26.8289 24.1835 26.8689 24.3674 26.8511C24.5512 26.8334 24.725 26.7588 24.8645 26.6377L24.869 26.6354ZM20.504 16.0739C20.504 17.7614 20.5468 19.1677 19.6963 20.6662C19.0078 21.8902 17.9165 22.6349 16.7015 22.6349C15.0433 22.6349 14.0713 21.3682 14.0713 19.4984C14.0713 15.8062 17.3833 15.1379 20.513 15.1379V16.0739H20.504Z" fill="black"/>
</svg>
