<svg width="36" height="15" viewBox="0 0 36 15" fill="none" xmlns="http://www.w3.org/2000/svg">
<path d="M5.6505 13.907H6.5835C10.053 13.907 10.9845 13.586 12.2055 11.963C13.4265 10.3415 13.5705 8.01195 13.5705 7.22445C13.5705 6.43695 13.362 4.46145 12.141 2.79045C10.92 1.11945 8.88 0.685951 7.095 0.685951H5.643C5.298 0.685951 5.28 0.838951 5.28 1.07895V13.6025C5.28 13.8755 5.3775 13.907 5.6505 13.907ZM0 14.2025C0 14.0765 0.165 14.054 0.3165 14.0495C2.0835 14 2.4135 13.9385 2.6145 13.7285C2.7255 13.613 2.8875 13.5185 2.8875 12.701V1.43595C2.8875 0.424952 1.6575 0.585451 0.7905 0.496951C0.486 0.466951 0.4605 0.424951 0.4605 0.336451C0.4605 0.247951 0.519 0.205951 0.678 0.199951H7.7955C15.6195 0.199951 16.02 5.91945 16.02 7.44495C16.02 10.724 13.8525 14.33 9.3225 14.33H0.228C0.117 14.33 0 14.315 0 14.201V14.2025ZM23.457 11.231C23.643 12.92 24.6495 14.234 25.8945 14.0135C27.144 13.793 27.7695 12.6005 27.6195 10.691C27.465 8.74845 26.5035 7.78095 25.212 7.89645C23.8755 8.01795 23.268 9.54195 23.457 11.231ZM24.693 7.59945C26.301 7.29945 28.5885 7.65345 29.109 10.1705C29.628 12.6875 27.8955 14.0285 26.3925 14.3555C24.9225 14.6735 22.428 14.4455 21.978 11.7395C21.7956 10.831 21.9783 9.88738 22.4864 9.1126C22.9945 8.33782 23.7872 7.79423 24.693 7.59945ZM18.9195 5.32845C19.1662 5.32845 19.4027 5.23047 19.5771 5.05606C19.7515 4.88165 19.8495 4.6451 19.8495 4.39845C19.8495 4.1518 19.7515 3.91525 19.5771 3.74084C19.4027 3.56643 19.1662 3.46845 18.9195 3.46845C18.6728 3.46845 18.4363 3.56643 18.2619 3.74084C18.0875 3.91525 17.9895 4.1518 17.9895 4.39845C17.9895 4.6451 18.0875 4.88165 18.2619 5.05606C18.4363 5.23047 18.6728 5.32845 18.9195 5.32845ZM16.995 8.92845C16.944 8.82945 17.04 8.76495 17.322 8.69145C17.637 8.60745 18.3255 8.39745 18.8715 8.08845C19.419 7.77945 19.512 7.74795 19.6275 7.78545C19.7445 7.82445 19.7325 8.02845 19.7325 8.19345V13.3985C19.7325 13.691 19.7715 13.8125 19.9035 13.934C20.037 14.0555 20.3685 14.1275 20.7975 14.1275C20.9925 14.1275 21.0525 14.15 21.0525 14.2325C21.0525 14.315 20.9925 14.315 20.9145 14.315H17.139C17.0235 14.315 16.995 14.2655 16.995 14.216C16.995 14.156 17.0475 14.1155 17.223 14.1155C17.37 14.1155 18.054 14.1665 18.2085 13.8125C18.2685 13.6775 18.2985 13.487 18.2985 13.3115V9.18195C18.2985 8.86695 18.054 8.72895 17.7735 8.79645C17.445 8.87145 17.0625 9.05745 16.995 8.92845ZM30.297 8.92695C30.2865 8.85945 30.2865 8.80095 30.624 8.69445C30.96 8.59095 31.7775 8.31345 32.274 8.03895C32.769 7.76295 32.853 7.72395 32.9685 7.80045C33.0855 7.87695 33.0525 8.06595 33.0525 8.19795V9.54495C33.2325 9.24645 33.831 8.25495 34.3035 7.96095C34.677 7.73145 34.8075 7.71195 35.0385 7.70595C35.316 7.70145 35.97 7.87245 35.9985 8.56395C36.021 9.10395 35.6235 9.31995 35.3685 9.28695C35.166 9.25695 35.022 9.07095 34.9005 8.88195C34.7805 8.69295 34.5855 8.57895 34.3935 8.64495C34.2 8.71095 33.1185 9.41295 33.057 10.412C33.012 11.147 33.057 13.436 33.057 13.436C33.057 13.784 33.189 13.9175 33.345 14.0105C33.4995 14.105 34.0665 14.1095 34.227 14.132C34.3875 14.1545 34.3815 14.192 34.3815 14.243C34.3815 14.291 34.3815 14.315 34.239 14.315H30.435C30.315 14.315 30.2655 14.291 30.2655 14.2205C30.2655 14.1215 30.4245 14.138 30.546 14.1215C30.666 14.105 31.311 14.1575 31.4955 13.8335C31.6305 13.622 31.614 13.2815 31.614 13.2815L31.5945 9.25845C31.5945 8.93295 31.4985 8.88495 31.41 8.83395C31.32 8.78295 31.17 8.75445 30.855 8.86245C30.558 8.95995 30.354 9.05145 30.297 8.92695Z" fill="black"/>
</svg>
