<svg width="42" height="42" viewBox="0 0 42 42" fill="none" xmlns="http://www.w3.org/2000/svg">
    <ellipse cx="21.0006" cy="21.0352" rx="18.9" ry="18.9352" fill="black"/>
    <path d="M30.3271 19.2166C30.5485 19.4381 30.6593 19.8042 30.6593 20.3148C30.6593 20.8255 30.5485 21.1916 30.3271 21.413C30.2286 21.5238 30.0933 21.6807 29.921 21.8837C29.7487 22.0867 29.4319 22.5266 28.9705 23.2034C28.509 23.8801 28.0876 24.5938 27.7062 25.3444C27.3124 26.1196 27.1155 26.7102 27.1155 27.1163C27.1278 27.8915 27.5216 29.0727 28.2968 30.66H14.1402C14.2264 30.4877 14.334 30.2601 14.4632 29.9771C14.5924 29.6941 14.7678 29.2357 14.9893 28.602C15.2107 27.9684 15.3215 27.4731 15.3215 27.1163C15.3215 26.9194 15.2876 26.7102 15.22 26.4887C15.1523 26.2672 15.0908 26.098 15.0354 25.9811C14.98 25.8643 14.8785 25.652 14.7309 25.3444C14.3494 24.6061 13.9372 23.9078 13.4942 23.2495C13.0513 22.5912 12.7098 22.1206 12.4699 21.8375C12.2299 21.5545 12.1038 21.413 12.0915 21.413C11.87 21.1916 11.7593 20.8255 11.7593 20.3148C11.7593 19.8042 11.87 19.4381 12.0915 19.2166L20.0465 16.9095V15.3038C19.7143 15.3038 19.4343 15.1899 19.2067 14.9623C18.9791 14.7347 18.8652 14.4547 18.8652 14.1225C17.807 14.1225 17.0072 14.2517 16.4658 14.5101C16.3674 15.0761 16.0998 15.5468 15.6629 15.9221C15.2261 16.2974 14.7186 16.485 14.1402 16.485C13.4881 16.485 12.9313 16.2543 12.4699 15.7929C12.0084 15.3314 11.7777 14.7747 11.7777 14.1225C11.7777 13.4704 12.0084 12.9136 12.4699 12.4521C12.9313 11.9907 13.4881 11.76 14.1402 11.76C14.6201 11.76 15.06 11.8984 15.4599 12.1753C15.8598 12.4521 16.1459 12.8059 16.3182 13.2366C16.9334 13.052 17.764 12.9536 18.8099 12.9413L18.8283 12.9505L18.8652 12.9597V12.9413C18.8652 12.6213 18.9791 12.3445 19.2067 12.1107C19.4343 11.8769 19.7143 11.76 20.0465 11.76H22.3905C22.7228 11.76 23.0027 11.8769 23.2303 12.1107C23.458 12.3445 23.5718 12.6213 23.5718 12.9413V14.1225C23.5718 14.4547 23.458 14.7347 23.2303 14.9623C23.0027 15.1899 22.7228 15.3038 22.3905 15.3038V16.928L30.3271 19.2166Z" fill="white"/>
</svg>
