<svg width="42" height="42" viewBox="0 0 42 42" fill="none" xmlns="http://www.w3.org/2000/svg">
<path d="M17.4385 30.8608L7.85154 21.2739L10.5551 18.5512L17.4385 25.4346L31.9915 10.8816L34.695 13.6043L17.4385 30.8608ZM21.2733 2.09998C18.7553 2.09998 16.262 2.59592 13.9357 3.5595C11.6095 4.52308 9.49574 5.93542 7.71527 7.71588C4.11947 11.3117 2.09937 16.1886 2.09937 21.2739C2.09937 26.3591 4.11947 31.2361 7.71527 34.8319C9.49574 36.6124 11.6095 38.0247 13.9357 38.9883C16.262 39.9519 18.7553 40.4478 21.2733 40.4478C26.3585 40.4478 31.2355 38.4277 34.8313 34.8319C38.4271 31.2361 40.4472 26.3591 40.4472 21.2739C40.4472 18.7559 39.9512 16.2626 38.9877 13.9363C38.0241 11.6101 36.6117 9.49635 34.8313 7.71588C33.0508 5.93542 30.9371 4.52308 28.6108 3.5595C26.2845 2.59592 23.7912 2.09998 21.2733 2.09998Z" fill="black"/>
</svg>
