<svg width="1em" height="1em" viewBox="0 0 32 30" fill="none" xmlns="http://www.w3.org/2000/svg">
<path d="M31.036 26.625L5.25198 30L0.962646 26.625H31.036ZM10.1333 24.095H5.25198V0H13.3213C15.6717 0.000992366 17.9255 0.876404 19.5879 2.434C21.2504 3.9916 22.1855 6.10406 22.188 8.3075C22.188 11.1 20.7106 13.5625 18.456 15.08L25.68 24.0937H19.5666L13.5853 16.62H10.1333V24.095ZM10.1333 12.045H13.3226C14.3793 12.044 15.3924 11.65 16.1395 10.9496C16.8867 10.2491 17.3069 9.29936 17.308 8.30875C17.3052 7.31899 16.8842 6.37058 16.1373 5.67107C15.3904 4.97155 14.3784 4.5779 13.3226 4.57625H10.1333V12.045Z" fill="black"/>
</svg>
