<svg width="42" height="42" viewBox="0 0 42 42" fill="none" xmlns="http://www.w3.org/2000/svg">
    <ellipse cx="21.0001" cy="21" rx="18.9" ry="18.9" fill="black"/>
    <path d="M25.1683 14.944C24.5043 15.3279 23.8575 15.7421 23.2202 16.1714C23.4441 16.2943 23.6259 16.5005 23.7331 16.8239C23.7656 16.9165 23.7752 17.013 23.7752 17.1113C24.1464 16.8371 24.5177 16.5629 24.8985 16.3038C25.5606 15.8537 26.2361 15.4225 26.9231 15.0083C27.7326 14.5223 28.5555 14.0608 29.3936 13.624C29.8567 13.3819 30.3237 13.1474 30.7944 12.9186C30.915 12.8618 31.0355 12.8032 31.1561 12.7465C31.2135 12.72 31.269 12.6878 31.3283 12.6651C31.401 12.6387 31.9885 12.4042 31.8087 12.2793C31.7245 12.2188 31.5962 12.251 31.5025 12.2642C31.3857 12.2831 31.2728 12.3172 31.1638 12.3474C30.9533 12.4042 30.7428 12.4666 30.5342 12.5328C30.0481 12.686 29.5697 12.8562 29.0951 13.0415C28.4808 13.2798 27.878 13.5427 27.2829 13.8263C26.5653 14.1724 25.8591 14.545 25.1683 14.944Z" fill="white"/>
    <path d="M22.6496 18.2612L22.6497 18.2609L22.8739 17.5869L22.8745 17.5853C22.9602 17.3222 22.8807 17.0357 22.6739 16.8546L22.6739 16.8546L22.6724 16.8533C22.4592 16.6694 22.1617 16.6401 21.9174 16.7621L21.9161 16.7628L21.7711 16.8361L21.7711 16.8361L21.7693 16.837L17.3633 19.1075L13.2519 16.1361C13.2519 16.136 13.2518 16.136 13.2518 16.1359C13.03 15.9755 12.7279 15.9633 12.4917 16.1097C12.2561 16.255 12.1333 16.5317 12.1779 16.8021L12.1779 16.8021L12.1781 16.8032L13.0224 21.7996L8.90243 24.8354L8.90243 24.8354L8.90171 24.8359C8.68084 24.9998 8.57604 25.2806 8.64635 25.5518C8.71457 25.8245 8.94043 26.0217 9.21514 26.0595L14.2469 26.7548L15.8437 31.652L15.844 31.6529C15.9301 31.9141 16.1681 32.1021 16.445 32.1214L16.4452 32.1214C16.7239 32.1406 16.9852 31.9874 17.1065 31.7388L17.1068 31.7382L19.3409 27.1256L24.4699 27.1686V27.1686H24.4721C24.7499 27.1686 25.0001 27.0039 25.1063 26.7469C25.2121 26.4907 25.1511 26.1953 24.9567 26.0011L24.9545 25.9989L21.2666 22.3996L22.6496 18.2612Z" fill="white" stroke="white" stroke-width="0.539604"/>
    <path d="M16.8765 17.3284C16.9707 17.4273 17.0515 17.5319 17.1687 17.6056C17.2245 17.6405 17.2726 17.6599 17.3187 17.6657C17.4322 17.6812 17.5149 17.6095 17.6302 17.5009C17.8667 17.278 18.1109 17.0609 18.357 16.8496C18.7358 16.5239 19.1223 16.2099 19.5165 15.9036C20.0376 15.4985 20.5683 15.1088 21.1105 14.7347C21.7758 14.2714 22.4546 13.8294 23.1448 13.4068C23.9582 12.9086 24.785 12.4376 25.6253 11.9879C26.0925 11.7417 26.5617 11.4994 27.0347 11.2667C27.1539 11.2067 27.275 11.1485 27.3962 11.0903C27.4539 11.0613 27.5096 11.0302 27.5692 11.007C27.6423 10.9779 28.2307 10.7395 28.0519 10.6115C27.9673 10.5495 27.8384 10.5825 27.7442 10.596C27.6269 10.6154 27.5154 10.6484 27.4019 10.6813C27.1885 10.7395 26.9789 10.8034 26.7693 10.8713C26.2829 11.0264 25.8002 11.2028 25.3234 11.3908C24.7062 11.637 24.1005 11.9064 23.5025 12.1953C22.7795 12.5481 22.07 12.9319 21.3759 13.339C20.5664 13.8178 19.7761 14.3315 19.0089 14.8762C18.3417 15.3492 17.6918 15.8454 17.0591 16.365C16.9457 16.458 16.8323 16.553 16.7169 16.648C16.6131 16.7352 16.4765 16.8341 16.5784 16.9814C16.6688 17.1074 16.7707 17.2179 16.8765 17.3284Z" fill="white"/>
    <path d="M33.4735 15.0562C33.3847 14.9978 33.2573 15.0368 33.1647 15.0562C33.0489 15.0796 32.9388 15.1205 32.8269 15.1594C32.6165 15.2295 32.408 15.3035 32.2014 15.3814C31.7208 15.5625 31.2459 15.7631 30.7769 15.9773C30.1707 16.2538 29.5762 16.5556 28.9933 16.8768C28.2848 17.2663 27.5918 17.6869 26.9162 18.1308C26.1287 18.6507 25.3623 19.2076 24.6191 19.7918C23.9746 20.3002 23.3475 20.8308 22.739 21.3826C22.6271 21.4819 22.519 21.5832 22.4089 21.6844C22.3085 21.7779 22.1773 21.883 22.2873 22.0252C22.38 22.1459 22.49 22.253 22.6 22.3562C22.7004 22.4516 22.7834 22.5509 22.9069 22.6191C22.9629 22.6522 23.0131 22.6677 23.0575 22.6736C23.1714 22.6833 23.2525 22.6054 23.3625 22.4925C23.5884 22.2569 23.8219 22.0271 24.0594 21.8012C24.4223 21.4546 24.7967 21.1197 25.1751 20.7946C25.6789 20.3623 26.1924 19.9456 26.7155 19.5406C27.3602 19.0441 28.0204 18.565 28.6902 18.1075C29.4797 17.5661 30.2866 17.0501 31.1089 16.5595C31.5625 16.2869 32.0219 16.024 32.4852 15.765C32.603 15.7008 32.7226 15.6346 32.8404 15.5703C32.8944 15.5391 32.9523 15.5041 33.0083 15.4788C33.0797 15.4457 33.6608 15.177 33.4735 15.0562Z" fill="white"/>
</svg>
